<svg width="491" height="396" viewBox="0 0 491 396" fill="none" xmlns="http://www.w3.org/2000/svg">
<path d="M433.66 151.489C355.638 221.566 280.136 235.906 216.594 224.59C157.299 214.03 108.254 181.097 77.1853 149.883C148.803 202.938 223.743 213.89 289.297 205.296C347.935 197.608 399.067 174.286 433.66 151.489ZM150.099 127.348C122.359 85.743 102.865 36.0366 93.1307 2.02232C183.498 22.448 257.095 26.7068 312.489 23.6813C365.379 20.7926 401.75 11.2582 420.274 2.75767C411.182 36.9229 392.79 86.4362 366.098 127.816C338.526 170.56 302.413 204.154 258.911 203.947C215.388 203.74 178.56 170.036 150.099 127.348Z" fill="black" stroke="black" stroke-width="3"/>
<path d="M6.66748 358.629V357.269L8.70748 356.589C11.7901 355.591 13.3315 353.37 13.3315 349.925V277.165C13.3315 275.351 12.9688 273.991 12.2435 273.085C11.5181 272.178 10.2488 271.453 8.43548 270.909L6.66748 270.501V269.141L31.5555 263.293L33.1875 264.517L32.7795 283.557V349.925C32.7795 353.551 34.2755 355.818 37.2675 356.725L39.1715 357.269V358.629H6.66748ZM57.1235 358.629L32.9155 324.629L58.0755 301.373C59.2541 300.285 59.9341 299.151 60.1155 297.973C60.3875 296.703 59.6168 295.797 57.8035 295.253L55.4915 294.573V293.213H75.7555V294.573L71.6755 295.661C69.6808 296.295 68.0488 297.066 66.7795 297.973C65.6008 298.789 64.1501 299.967 62.4275 301.509L47.1955 315.789L71.5395 349.653C72.9901 351.647 74.3501 353.189 75.6195 354.277C76.8888 355.365 78.5208 356.271 80.5155 356.997L81.0595 357.269V358.629H57.1235ZM100.929 360.669C95.6706 360.669 91.228 359.173 87.6013 356.181C84.0653 353.189 82.2973 348.882 82.2973 343.261C82.2973 338.999 84.4733 335.101 88.8253 331.565C93.1773 327.938 100.023 325.218 109.361 323.405C110.812 323.133 112.444 322.861 114.257 322.589C116.071 322.226 117.975 321.863 119.969 321.501V310.757C119.969 304.591 119.199 300.285 117.657 297.837C116.207 295.298 113.895 294.029 110.721 294.029C108.545 294.029 106.823 294.754 105.553 296.205C104.284 297.565 103.468 299.967 103.105 303.413L102.833 304.909C102.652 308.807 101.7 311.663 99.9773 313.477C98.2546 315.29 96.124 316.197 93.5853 316.197C91.228 316.197 89.2786 315.471 87.7373 314.021C86.196 312.57 85.4253 310.621 85.4253 308.173C85.4253 304.455 86.6946 301.327 89.2333 298.789C91.8626 296.25 95.308 294.346 99.5693 293.077C103.831 291.807 108.455 291.173 113.441 291.173C121.511 291.173 127.721 293.167 132.073 297.157C136.516 301.055 138.737 307.447 138.737 316.333V346.389C138.737 350.469 140.641 352.509 144.449 352.509H147.441L148.665 353.597C146.943 355.773 145.039 357.45 142.953 358.629C140.959 359.807 138.103 360.397 134.385 360.397C130.396 360.397 127.223 359.49 124.865 357.677C122.599 355.773 121.103 353.279 120.377 350.197C117.657 353.098 114.847 355.591 111.945 357.677C109.135 359.671 105.463 360.669 100.929 360.669ZM109.225 352.373C111.039 352.373 112.716 351.965 114.257 351.149C115.889 350.242 117.793 348.882 119.969 347.069V324.221C119.063 324.402 118.156 324.583 117.249 324.765C116.343 324.946 115.3 325.127 114.121 325.309C109.951 326.397 106.596 328.255 104.057 330.885C101.609 333.423 100.385 336.869 100.385 341.221C100.385 344.938 101.247 347.749 102.969 349.653C104.692 351.466 106.777 352.373 109.225 352.373ZM147.656 358.629V357.269L149.424 356.861C151.147 356.407 152.507 355.637 153.504 354.549C154.501 353.37 155 351.874 155 350.061C155 346.706 155 343.397 155 340.133C155.091 336.778 155.136 333.423 155.136 330.069V295.933H147.52V294.437L150.512 293.893C152.325 293.711 153.64 293.077 154.456 291.989C155.272 290.901 155.861 289.405 156.224 287.501C157.131 283.965 158.445 280.882 160.168 278.253C161.981 275.533 164.021 273.039 166.288 270.773C169.733 267.509 173.36 265.242 177.168 263.973C181.067 262.613 184.875 261.933 188.592 261.933C192.219 261.933 195.528 262.703 198.52 264.245C201.512 265.695 203.008 268.143 203.008 271.589C203.008 274.037 202.283 275.986 200.832 277.437C199.381 278.797 197.341 279.477 194.712 279.477C192.536 279.477 190.541 278.887 188.728 277.709C186.915 276.53 185.147 274.445 183.424 271.453L181.52 269.141C180.523 267.871 179.525 267.282 178.528 267.373C177.531 267.373 176.805 268.098 176.352 269.549C175.717 272.722 175.219 276.439 174.856 280.701C174.584 284.962 174.448 289.133 174.448 293.213H189.68V295.933H174.448V349.789C174.448 353.234 176.261 355.455 179.888 356.453L183.288 357.269V358.629H147.656ZM222.463 291.173C228.357 291.173 233.389 292.397 237.559 294.845C241.73 297.202 244.903 300.466 247.079 304.637C249.346 308.717 250.479 313.386 250.479 318.645C250.479 319.642 250.434 320.685 250.343 321.773C250.253 322.77 250.071 323.677 249.799 324.493H209.271C209.362 334.285 211.085 341.357 214.439 345.709C217.885 349.97 222.962 352.101 229.671 352.101C234.205 352.101 237.877 351.375 240.687 349.925C243.498 348.474 246.127 346.343 248.575 343.533L249.935 344.757C247.125 349.743 243.362 353.642 238.647 356.453C234.023 359.263 228.447 360.669 221.919 360.669C215.482 360.669 209.77 359.309 204.783 356.589C199.797 353.778 195.898 349.789 193.087 344.621C190.277 339.453 188.871 333.287 188.871 326.125C188.871 318.69 190.503 312.389 193.767 307.221C197.031 301.962 201.202 297.973 206.279 295.253C211.447 292.533 216.842 291.173 222.463 291.173ZM222.055 293.893C219.426 293.893 217.159 294.709 215.255 296.341C213.442 297.882 211.991 300.693 210.903 304.773C209.906 308.762 209.362 314.429 209.271 321.773H232.527C233.434 311.89 233.071 304.773 231.439 300.421C229.807 296.069 226.679 293.893 222.055 293.893ZM272.502 360.669C267.243 360.669 262.8 359.173 259.174 356.181C255.638 353.189 253.87 348.882 253.87 343.261C253.87 338.999 256.046 335.101 260.398 331.565C264.75 327.938 271.595 325.218 280.934 323.405C282.384 323.133 284.016 322.861 285.83 322.589C287.643 322.226 289.547 321.863 291.542 321.501V310.757C291.542 304.591 290.771 300.285 289.23 297.837C287.779 295.298 285.467 294.029 282.294 294.029C280.118 294.029 278.395 294.754 277.126 296.205C275.856 297.565 275.04 299.967 274.678 303.413L274.406 304.909C274.224 308.807 273.272 311.663 271.55 313.477C269.827 315.29 267.696 316.197 265.158 316.197C262.8 316.197 260.851 315.471 259.31 314.021C257.768 312.57 256.998 310.621 256.998 308.173C256.998 304.455 258.267 301.327 260.806 298.789C263.435 296.25 266.88 294.346 271.142 293.077C275.403 291.807 280.027 291.173 285.014 291.173C293.083 291.173 299.294 293.167 303.646 297.157C308.088 301.055 310.31 307.447 310.31 316.333V346.389C310.31 350.469 312.214 352.509 316.022 352.509H319.014L320.238 353.597C318.515 355.773 316.611 357.45 314.526 358.629C312.531 359.807 309.675 360.397 305.958 360.397C301.968 360.397 298.795 359.49 296.438 357.677C294.171 355.773 292.675 353.279 291.95 350.197C289.23 353.098 286.419 355.591 283.518 357.677C280.707 359.671 277.035 360.669 272.502 360.669ZM280.798 352.373C282.611 352.373 284.288 351.965 285.83 351.149C287.462 350.242 289.366 348.882 291.542 347.069V324.221C290.635 324.402 289.728 324.583 288.822 324.765C287.915 324.946 286.872 325.127 285.694 325.309C281.523 326.397 278.168 328.255 275.63 330.885C273.182 333.423 271.958 336.869 271.958 341.221C271.958 344.938 272.819 347.749 274.542 349.653C276.264 351.466 278.35 352.373 280.798 352.373ZM342.484 360.669C338.042 360.669 334.052 360.125 330.516 359.037C326.98 358.039 323.716 356.77 320.724 355.229L320.86 339.045H322.22L326.844 347.205C328.839 350.831 331.015 353.551 333.372 355.365C335.82 357.087 338.903 357.949 342.62 357.949C346.972 357.949 350.463 356.997 353.092 355.093C355.812 353.098 357.172 350.469 357.172 347.205C357.172 344.213 356.22 341.765 354.316 339.861C352.412 337.957 348.876 336.234 343.708 334.693L337.996 332.925C332.466 331.293 328.114 328.754 324.94 325.309C321.767 321.863 320.18 317.647 320.18 312.661C320.18 306.677 322.538 301.599 327.252 297.429C331.967 293.258 338.722 291.173 347.516 291.173C351.052 291.173 354.362 291.581 357.444 292.397C360.618 293.122 363.655 294.255 366.556 295.797L365.74 310.485H364.38L359.62 302.053C357.898 299.061 356.175 296.975 354.452 295.797C352.82 294.527 350.327 293.893 346.972 293.893C343.89 293.893 340.988 294.754 338.268 296.477C335.548 298.199 334.188 300.647 334.188 303.821C334.188 306.903 335.322 309.351 337.588 311.165C339.946 312.978 343.391 314.655 347.924 316.197L354.044 317.965C360.572 319.959 365.242 322.725 368.052 326.261C370.863 329.706 372.268 333.877 372.268 338.773C372.268 345.391 369.639 350.695 364.38 354.685C359.212 358.674 351.914 360.669 342.484 360.669ZM390.032 284.101C386.95 284.101 384.32 283.149 382.144 281.245C380.059 279.25 379.016 276.757 379.016 273.765C379.016 270.682 380.059 268.189 382.144 266.285C384.32 264.381 386.95 263.429 390.032 263.429C393.115 263.429 395.699 264.381 397.784 266.285C399.87 268.189 400.912 270.682 400.912 273.765C400.912 276.757 399.87 279.25 397.784 281.245C395.699 283.149 393.115 284.101 390.032 284.101ZM373.984 358.629V357.269L375.888 356.725C377.702 356.181 378.926 355.365 379.56 354.277C380.286 353.189 380.648 351.738 380.648 349.925V307.357C380.648 305.453 380.286 304.047 379.56 303.141C378.926 302.143 377.702 301.463 375.888 301.101L373.984 300.693V299.333L398.872 291.309L400.232 292.669L399.824 311.981V350.061C399.824 351.874 400.142 353.325 400.776 354.413C401.502 355.501 402.726 356.317 404.448 356.861L405.808 357.269V358.629H373.984ZM431.278 360.669C426.835 360.669 422.846 360.125 419.31 359.037C415.774 358.039 412.51 356.77 409.518 355.229L409.654 339.045H411.014L415.638 347.205C417.632 350.831 419.808 353.551 422.166 355.365C424.614 357.087 427.696 357.949 431.414 357.949C435.766 357.949 439.256 356.997 441.886 355.093C444.606 353.098 445.966 350.469 445.966 347.205C445.966 344.213 445.014 341.765 443.11 339.861C441.206 337.957 437.67 336.234 432.502 334.693L426.79 332.925C421.259 331.293 416.907 328.754 413.734 325.309C410.56 321.863 408.974 317.647 408.974 312.661C408.974 306.677 411.331 301.599 416.046 297.429C420.76 293.258 427.515 291.173 436.31 291.173C439.846 291.173 443.155 291.581 446.238 292.397C449.411 293.122 452.448 294.255 455.35 295.797L454.534 310.485H453.174L448.414 302.053C446.691 299.061 444.968 296.975 443.246 295.797C441.614 294.527 439.12 293.893 435.766 293.893C432.683 293.893 429.782 294.754 427.062 296.477C424.342 298.199 422.982 300.647 422.982 303.821C422.982 306.903 424.115 309.351 426.382 311.165C428.739 312.978 432.184 314.655 436.718 316.197L442.838 317.965C449.366 319.959 454.035 322.725 456.846 326.261C459.656 329.706 461.062 333.877 461.062 338.773C461.062 345.391 458.432 350.695 453.174 354.685C448.006 358.674 440.707 360.669 431.278 360.669ZM488.744 360.669C482.941 360.669 478.408 359.218 475.144 356.317C471.971 353.415 470.384 348.791 470.384 342.445V295.933H461V294.573L464.264 294.029C467.075 293.394 469.477 292.487 471.472 291.309C473.557 290.13 475.597 288.543 477.592 286.549L488.744 274.173H490.104L489.696 293.213H504.928V295.933H489.56V344.893C489.56 348.066 490.24 350.469 491.6 352.101C493.051 353.733 494.864 354.549 497.04 354.549C498.944 354.549 500.621 354.095 502.072 353.189C503.523 352.191 504.973 350.877 506.424 349.245L507.784 350.605C505.971 353.687 503.477 356.135 500.304 357.949C497.131 359.762 493.277 360.669 488.744 360.669Z" fill="black"/>
</svg>
