<svg width="412" height="244" viewBox="0 0 412 244" fill="none" xmlns="http://www.w3.org/2000/svg">
<path d="M394.425 160.236C311.143 235.47 230.512 250.883 162.689 238.804C99.0798 227.476 46.5675 191.935 13.5846 158.487C89.9866 215.503 170.007 227.282 239.967 218.111C302.876 209.863 357.656 184.68 394.425 160.236ZM91.9502 135.408C62.4182 91.1141 41.6782 38.186 31.3443 2.02238C127.456 23.7607 205.726 28.2931 264.624 25.0762C321.008 21.9966 359.718 11.8106 379.335 2.76163C369.687 39.0883 350.116 91.8336 321.689 135.903C292.38 181.341 253.971 217.085 207.682 216.865C161.373 216.645 122.205 180.785 91.9502 135.408Z" fill="black" stroke="black" stroke-width="3"/>
</svg>
